<svg width="800" height="799" viewBox="0 0 800 799" fill="none" xmlns="http://www.w3.org/2000/svg">
<path d="M345.18 403.734C341.794 397.354 344.073 392.406 352.016 388.891C359.568 385.505 367.445 380.753 375.648 374.633C383.852 368.513 390.557 362.198 395.766 355.688C401.625 348.396 407.224 344.75 412.562 344.75H443.617C451.43 344.75 455.336 348.656 455.336 356.469V614.281C455.336 622.094 451.43 626 443.617 626H412.367C404.555 626 400.648 622.094 400.648 614.281V428.539C400.648 423.331 400.909 418.122 401.43 412.914H400.648C396.612 417.992 392.185 422.354 387.367 426C382.549 429.646 377.667 432.51 372.719 434.594C366.599 437.198 361.977 435.505 358.852 429.516L345.18 403.734Z" fill="#B9B9B9"/>
<path d="M750.321 82.5585H671.96V0H561.7V82.5585H238.3V0H128.049V82.5585H49.6878C22.2463 82.5585 0 104.805 0 132.246V748.404C0 775.846 22.2463 798.092 49.6878 798.092H750.321C777.762 798.092 800.009 775.854 800.009 748.404V132.246C800.009 104.805 777.762 82.5585 750.321 82.5585ZM722.984 721.899H77.0165V297.884H722.984V721.899Z" fill="#B9B9B9"/>
</svg>
