<svg width="2134" height="1336" viewBox="0 0 2134 1336" fill="none" xmlns="http://www.w3.org/2000/svg">
<path d="M285.403 224.412L1787.85 141.806C1873.24 137.111 1947.75 199.215 1958.5 284.06L2037.96 910.806C2050.56 1010.24 1971.29 1097.38 1871.11 1094.22L250.653 1043.13C157.701 1040.19 86.0355 960.212 93.2869 867.497L131.848 374.457C138.216 293.036 203.857 228.896 285.403 224.412Z" fill="#F4F4F4"/>
<path d="M1983.22 185.371L117.32 185.371C95.2639 185.371 78.1063 204.545 80.5467 226.465L171.089 1039.73C173.274 1059.36 190.492 1073.81 210.203 1072.56L534.844 1051.97C543.538 1051.42 552.147 1053.95 559.157 1059.13L786.309 1226.77C795.131 1233.28 806.774 1223.61 802.001 1213.74L765.144 1115.18C756.18 1091.21 773.676 1065.59 799.265 1065.22L1924.61 1048.94C1943.76 1048.67 1959.54 1033.81 1960.97 1014.71L2020.12 225.135C2021.73 203.672 2004.75 185.371 1983.22 185.371Z" stroke="#304B36" stroke-width="18"/>
<path d="M556.607 485.344L595.757 315.844H646.157L586.157 523.744H525.257L465.557 315.844H517.757L556.607 485.344ZM735.589 359.194C751.989 359.194 765.939 362.694 777.439 369.694C788.939 376.694 797.739 386.544 803.839 399.244C809.939 411.844 812.989 426.644 812.989 443.644C812.989 461.344 809.889 476.594 803.689 489.394C797.589 502.094 788.789 511.844 777.289 518.644C765.789 525.444 751.889 528.844 735.589 528.844C719.389 528.844 705.489 525.494 693.889 518.794C682.389 512.094 673.539 502.394 667.339 489.694C661.239 476.994 658.189 461.744 658.189 443.944C658.189 427.044 661.239 412.244 667.339 399.544C673.539 386.844 682.389 376.944 693.889 369.844C705.489 362.744 719.389 359.194 735.589 359.194ZM735.589 394.144C725.889 394.144 718.689 398.144 713.989 406.144C709.389 414.044 707.089 426.644 707.089 443.944C707.089 461.544 709.389 474.294 713.989 482.194C718.689 490.094 725.889 494.044 735.589 494.044C745.289 494.044 752.439 490.094 757.039 482.194C761.739 474.294 764.089 461.444 764.089 443.644C764.089 426.444 761.739 413.894 757.039 405.994C752.439 398.094 745.289 394.144 735.589 394.144ZM930.922 491.494C937.422 491.494 943.522 490.244 949.222 487.744C955.022 485.144 960.772 481.844 966.472 477.844L987.622 507.844C980.622 513.844 972.072 518.844 961.972 522.844C951.972 526.844 940.772 528.844 928.372 528.844C911.272 528.844 896.572 525.344 884.272 518.344C871.972 511.244 862.522 501.444 855.922 488.944C849.322 476.344 846.022 461.744 846.022 445.144C846.022 428.544 849.372 413.794 856.072 400.894C862.872 387.894 872.472 377.694 884.872 370.294C897.372 362.894 912.172 359.194 929.272 359.194C941.372 359.194 952.122 360.894 961.522 364.294C971.022 367.594 979.722 372.544 987.622 379.144L967.072 407.644C961.672 403.844 955.972 400.894 949.972 398.794C943.972 396.694 937.722 395.644 931.222 395.644C920.522 395.644 911.872 399.444 905.272 407.044C898.772 414.544 895.522 427.244 895.522 445.144C895.522 456.844 897.072 466.094 900.172 472.894C903.272 479.594 907.472 484.394 912.772 487.294C918.172 490.094 924.222 491.494 930.922 491.494ZM1067.45 457.894C1068.55 466.594 1070.8 473.644 1074.2 479.044C1077.7 484.344 1082.15 488.244 1087.55 490.744C1092.95 493.144 1099 494.344 1105.7 494.344C1113 494.344 1120.05 493.144 1126.85 490.744C1133.65 488.344 1140.2 485.144 1146.5 481.144L1165.55 506.944C1158.05 513.344 1148.95 518.594 1138.25 522.694C1127.65 526.794 1115.55 528.844 1101.95 528.844C1083.75 528.844 1068.5 525.244 1056.2 518.044C1043.9 510.744 1034.65 500.744 1028.45 488.044C1022.25 475.344 1019.15 460.744 1019.15 444.244C1019.15 428.544 1022.15 414.294 1028.15 401.494C1034.15 388.594 1042.9 378.344 1054.4 370.744C1066 363.044 1080.15 359.194 1096.85 359.194C1112.05 359.194 1125.2 362.444 1136.3 368.944C1147.5 375.444 1156.15 384.794 1162.25 396.994C1168.45 409.194 1171.55 423.844 1171.55 440.944C1171.55 443.644 1171.45 446.544 1171.25 449.644C1171.15 452.744 1170.95 455.494 1170.65 457.894H1067.45ZM1096.85 390.994C1088.35 390.994 1081.5 394.044 1076.3 400.144C1071.1 406.244 1067.95 415.994 1066.85 429.394H1125.35C1125.25 417.794 1123 408.494 1118.6 401.494C1114.2 394.494 1106.95 390.994 1096.85 390.994ZM1057.7 340.294L1040.3 320.944L1082.9 279.094H1112L1154.3 320.944L1137.35 340.294L1097.45 312.094L1057.7 340.294ZM460.665 888.944C468.565 888.944 474.915 887.694 479.715 885.194C484.615 882.694 487.065 878.944 487.065 873.944C487.065 870.544 486.115 867.694 484.215 865.394C482.315 863.094 478.665 860.894 473.265 858.794C467.865 856.694 459.865 854.194 449.265 851.294C439.565 848.694 430.965 845.394 423.465 841.394C416.065 837.394 410.265 832.244 406.065 825.944C401.965 819.644 399.915 811.794 399.915 802.394C399.915 792.894 402.565 784.444 407.865 777.044C413.165 769.644 420.965 763.844 431.265 759.644C441.565 755.344 454.165 753.194 469.065 753.194C483.265 753.194 495.615 755.044 506.115 758.744C516.715 762.344 525.865 766.944 533.565 772.544L514.665 800.444C508.065 796.344 500.965 793.094 493.365 790.694C485.765 788.194 478.115 786.944 470.415 786.944C462.715 786.944 456.965 787.994 453.165 790.094C449.465 792.094 447.615 795.144 447.615 799.244C447.615 801.944 448.565 804.294 450.465 806.294C452.465 808.194 456.165 810.194 461.565 812.294C466.965 814.294 474.865 816.794 485.265 819.794C495.565 822.694 504.515 826.044 512.115 829.844C519.815 833.644 525.765 838.744 529.965 845.144C534.165 851.444 536.265 859.794 536.265 870.194C536.265 881.794 532.815 891.544 525.915 899.444C519.015 907.244 509.865 913.094 498.465 916.994C487.065 920.894 474.565 922.844 460.965 922.844C445.565 922.844 431.965 920.644 420.165 916.244C408.365 911.844 398.315 906.044 390.015 898.844L413.865 872.144C420.065 876.944 427.065 880.944 434.865 884.144C442.765 887.344 451.365 888.944 460.665 888.944ZM710.748 871.844C710.748 877.844 711.548 882.194 713.148 884.894C714.848 887.594 717.548 889.644 721.248 891.044L711.498 922.244C702.098 921.344 694.148 919.294 687.648 916.094C681.248 912.794 676.198 907.844 672.498 901.244C666.398 908.544 658.598 913.994 649.098 917.594C639.598 921.094 629.898 922.844 619.998 922.844C603.598 922.844 590.498 918.194 580.698 908.894C570.998 899.494 566.148 887.444 566.148 872.744C566.148 855.444 572.898 842.094 586.398 832.694C599.998 823.294 619.098 818.594 643.698 818.594H665.148V812.594C665.148 804.294 662.448 798.144 657.048 794.144C651.748 790.144 643.948 788.144 633.648 788.144C628.548 788.144 621.998 788.894 613.998 790.394C605.998 791.794 597.998 793.844 589.998 796.544L579.048 765.044C589.348 761.144 600.048 758.194 611.148 756.194C622.348 754.194 632.348 753.194 641.148 753.194C664.848 753.194 682.348 758.044 693.648 767.744C705.048 777.344 710.748 791.244 710.748 809.444V871.844ZM636.348 888.944C641.448 888.944 646.798 887.444 652.398 884.444C657.998 881.344 662.248 876.994 665.148 871.394V845.594H653.448C640.248 845.594 630.548 847.644 624.348 851.744C618.148 855.744 615.048 861.644 615.048 869.444C615.048 875.544 616.898 880.344 620.598 883.844C624.398 887.244 629.648 888.944 636.348 888.944ZM803.931 774.794C808.931 768.194 814.931 762.944 821.931 759.044C829.031 755.144 836.631 753.194 844.731 753.194C858.431 753.194 869.581 756.644 878.181 763.544C886.881 770.444 893.281 780.194 897.381 792.794C901.481 805.394 903.531 820.344 903.531 837.644C903.531 854.044 901.081 868.694 896.181 881.594C891.381 894.394 884.231 904.494 874.731 911.894C865.231 919.194 853.581 922.844 839.781 922.844C823.081 922.844 809.931 916.344 800.331 903.344L798.531 917.744H756.531V695.144L803.931 690.194V774.794ZM827.331 888.344C835.731 888.344 842.381 884.494 847.281 876.794C852.181 868.994 854.631 856.144 854.631 838.244C854.631 825.044 853.581 814.844 851.481 807.644C849.481 800.344 846.581 795.294 842.781 792.494C839.081 789.594 834.731 788.144 829.731 788.144C824.431 788.144 819.681 789.794 815.481 793.094C811.281 796.394 807.431 800.894 803.931 806.594V873.794C806.931 878.494 810.281 882.094 813.981 884.594C817.681 887.094 822.131 888.344 827.331 888.344ZM1033.76 758.444V885.344H1074.26V917.744H941.214V885.344H986.364V790.844H942.714V758.444H1033.76ZM1005.11 675.044C1013.31 675.044 1020.01 677.594 1025.21 682.694C1030.41 687.794 1033.01 694.144 1033.01 701.744C1033.01 709.344 1030.41 715.744 1025.21 720.944C1020.01 726.044 1013.31 728.594 1005.11 728.594C996.814 728.594 990.014 726.044 984.714 720.944C979.514 715.744 976.914 709.344 976.914 701.744C976.914 694.144 979.514 687.794 984.714 682.694C990.014 677.594 996.814 675.044 1005.11 675.044ZM1250.4 871.844C1250.4 877.844 1251.2 882.194 1252.8 884.894C1254.5 887.594 1257.2 889.644 1260.9 891.044L1251.15 922.244C1241.75 921.344 1233.8 919.294 1227.3 916.094C1220.9 912.794 1215.85 907.844 1212.15 901.244C1206.05 908.544 1198.25 913.994 1188.75 917.594C1179.25 921.094 1169.55 922.844 1159.65 922.844C1143.25 922.844 1130.15 918.194 1120.35 908.894C1110.65 899.494 1105.8 887.444 1105.8 872.744C1105.8 855.444 1112.55 842.094 1126.05 832.694C1139.65 823.294 1158.75 818.594 1183.35 818.594H1204.8V812.594C1204.8 804.294 1202.1 798.144 1196.7 794.144C1191.4 790.144 1183.6 788.144 1173.3 788.144C1168.2 788.144 1161.65 788.894 1153.65 790.394C1145.65 791.794 1137.65 793.844 1129.65 796.544L1118.7 765.044C1129 761.144 1139.7 758.194 1150.8 756.194C1162 754.194 1172 753.194 1180.8 753.194C1204.5 753.194 1222 758.044 1233.3 767.744C1244.7 777.344 1250.4 791.244 1250.4 809.444V871.844ZM1176 888.944C1181.1 888.944 1186.45 887.444 1192.05 884.444C1197.65 881.344 1201.9 876.994 1204.8 871.394V845.594H1193.1C1179.9 845.594 1170.2 847.644 1164 851.744C1157.8 855.744 1154.7 861.644 1154.7 869.444C1154.7 875.544 1156.55 880.344 1160.25 883.844C1164.05 887.244 1169.3 888.944 1176 888.944Z" fill="#6DA67A"/>
<path d="M1592.27 282.739C1638.05 285.999 1675.71 295.748 1705.23 311.986C1734.77 327.925 1756.35 347.958 1769.97 372.087C1783.91 395.937 1789.94 421.179 1788.04 447.811C1785.97 476.838 1778.59 500.223 1765.9 517.966C1753.53 535.431 1738.67 549.862 1721.31 561.258C1703.98 572.355 1686.55 582.693 1669.03 592.273C1651.8 601.874 1637.02 613.002 1624.69 625.658C1612.66 638.336 1605.9 655.148 1604.41 676.095L1603.1 694.498L1473.38 685.261L1475.01 662.369C1477.2 631.547 1483.93 606.763 1495.19 588.015C1506.77 568.99 1520.34 553.715 1535.9 542.191C1551.76 530.688 1567.35 520.82 1582.67 512.588C1598.01 504.056 1610.98 495.205 1621.55 486.033C1632.45 476.583 1638.43 464.377 1639.5 449.415C1640.67 432.957 1634.83 419.909 1621.99 410.272C1609.14 400.635 1592.24 395.071 1571.29 393.579C1550.95 392.13 1530.73 395.202 1510.64 402.794C1490.85 410.408 1472.21 422.916 1454.73 440.318L1369.94 363.903C1397.83 335.512 1430.04 314.045 1466.56 299.503C1503.39 284.982 1545.29 279.394 1592.27 282.739ZM1533.99 771.685C1556.44 773.283 1575.01 782.726 1589.72 800.015C1604.45 817.004 1611.03 836.57 1609.45 858.714C1607.88 880.858 1598.58 899.445 1581.57 914.475C1564.58 929.205 1544.87 935.772 1522.42 934.174C1499.68 932.554 1481.09 923.261 1466.66 906.293C1452.25 889.026 1445.84 869.32 1447.41 847.176C1448.99 825.032 1458.12 806.584 1474.81 791.832C1491.52 776.781 1511.25 770.066 1533.99 771.685Z" fill="#43764E"/>
<path d="M1867.93 135.666L310.472 226.244C1027.57 209.059 1438.88 198.151 1843.84 344.466C1899.45 364.559 1959.59 321.558 1954.75 262.627L1950.2 207.155C1946.74 164.942 1910.22 133.207 1867.93 135.666Z" fill="#F4F4F4"/>
</svg>
