<svg width="2134" height="1336" viewBox="0 0 2134 1336" fill="none" xmlns="http://www.w3.org/2000/svg">
<path d="M285.403 224.413L1787.85 141.806C1873.24 137.111 1947.75 199.215 1958.5 284.061L2037.96 910.807C2050.56 1010.24 1971.29 1097.38 1871.11 1094.23L250.653 1043.13C157.701 1040.19 86.0356 960.213 93.2871 867.497L131.848 374.457C138.216 293.036 203.857 228.896 285.403 224.413Z" fill="#F4F4F4"/>
<path d="M1983.22 185.372L117.32 185.371C95.264 185.371 78.1065 204.545 80.5469 226.465L171.089 1039.73C173.274 1059.36 190.492 1073.81 210.204 1072.56L534.844 1051.97C543.538 1051.42 552.147 1053.95 559.157 1059.13L786.309 1226.77C795.131 1233.28 806.774 1223.61 802.001 1213.74L765.144 1115.18C756.181 1091.21 773.676 1065.59 799.265 1065.22L1924.61 1048.94C1943.76 1048.67 1959.54 1033.81 1960.97 1014.71L2020.12 225.136C2021.73 203.672 2004.75 185.372 1983.22 185.372Z" stroke="#43764E" stroke-width="18"/>
<path d="M1867.93 135.667L310.472 226.245C1027.57 209.059 1438.88 198.151 1843.84 344.467C1899.45 364.559 1959.59 321.558 1954.75 262.628L1950.2 207.156C1946.74 164.942 1910.22 133.208 1867.93 135.667Z" fill="#F4F4F4"/>
</svg>
