<svg width="366" height="282" viewBox="0 0 366 282" fill="none" xmlns="http://www.w3.org/2000/svg">
<path d="M362.791 261.369L276.782 281.446C273.932 282.109 271.556 279.184 272.793 276.535L288.448 243.095L135.474 171.852C131.962 170.182 130.443 166.01 132.075 162.515L158.838 105.15L2.77587 32.5036C1.93394 32.1066 1.28317 31.3936 0.965018 30.5195C0.646867 29.6453 0.687051 28.6808 1.07683 27.8355L13.0079 2.44069C13.406 1.59928 14.1203 0.948566 14.9956 0.629991C15.8709 0.311415 16.8364 0.350732 17.6822 0.739394L199.207 85.1701C202.745 86.7828 204.279 90.9964 202.605 94.5062L175.843 151.872L303.325 211.248L318.938 177.823C319.219 177.226 319.661 176.72 320.215 176.362C320.77 176.004 321.413 175.808 322.073 175.797C322.733 175.786 323.382 175.96 323.947 176.299C324.513 176.639 324.971 177.13 325.27 177.717L365.149 256.394C366.206 258.395 365.047 260.875 362.791 261.369Z" fill="#C44545"/>
</svg>
