<svg width="500" height="500" viewBox="0 0 500 500" fill="none" xmlns="http://www.w3.org/2000/svg">
<g clip-path="url(#clip0_376_2)">
<path d="M398.77 37.7019C375.618 11.3133 333.767 0 280.229 0H124.844C113.89 0 104.582 7.96636 102.867 18.768L38.168 429.105C36.8817 437.196 43.1469 444.526 51.3484 444.526H147.277L171.369 291.713L170.623 296.498C172.338 285.697 181.576 277.73 192.516 277.73H238.102C327.654 277.73 397.775 241.356 418.258 136.134C418.866 133.022 419.392 129.993 419.848 127.033C417.262 125.664 417.262 125.664 419.848 127.033C425.947 88.1417 419.807 61.6702 398.77 37.7019Z" fill="#27346A"/>
<path d="M208.076 113.023C210.634 111.806 213.483 111.128 216.471 111.128H338.29C352.715 111.128 366.172 112.068 378.467 114.046C381.994 114.613 385.41 115.263 388.73 116.01C392.049 116.743 395.271 117.573 398.397 118.486C399.96 118.942 401.495 119.412 403.003 119.91C409.047 121.93 414.676 124.281 419.848 127.033C425.947 88.1279 419.807 61.6702 398.77 37.7019C375.604 11.3133 333.767 0 280.229 0H124.83C113.89 0 104.582 7.96636 102.867 18.768L38.168 429.091C36.8817 437.196 43.1469 444.512 51.3346 444.512H147.277L197.26 127.545C198.284 121.044 202.46 115.72 208.076 113.023Z" fill="#27346A"/>
<path d="M418.258 136.134C397.775 241.342 327.654 277.73 238.102 277.73H192.502C181.563 277.73 172.324 285.697 170.623 296.498L140.652 486.502C139.532 493.583 145.009 500 152.173 500H233.04C242.61 500 250.756 493.03 252.25 483.583L253.039 479.462L268.28 382.87L269.262 377.531C270.755 368.085 278.902 361.114 288.472 361.114H300.574C378.91 361.114 440.248 329.29 458.172 237.248C465.655 198.786 461.782 166.671 441.991 144.114C435.988 137.282 428.534 131.639 419.848 127.033C419.378 130.007 418.866 133.022 418.258 136.134Z" fill="#2790C3"/>
<path d="M398.411 118.486C395.285 117.573 392.063 116.743 388.743 116.01C385.424 115.277 381.994 114.627 378.481 114.06C366.172 112.068 352.729 111.128 338.29 111.128H216.485C213.483 111.128 210.634 111.806 208.089 113.037C202.46 115.733 198.297 121.044 197.274 127.559L171.383 291.713L170.636 296.498C172.338 285.696 181.576 277.73 192.516 277.73H238.115C327.668 277.73 397.789 241.356 418.272 136.133C418.88 133.022 419.392 130.007 419.862 127.033C414.676 124.295 409.06 121.93 403.016 119.924C401.509 119.426 399.974 118.942 398.411 118.486Z" fill="#1F264F"/>
</g>
<defs>
<clipPath id="clip0_376_2">
<rect width="500" height="500" fill="white"/>
</clipPath>
</defs>
</svg>
