<svg width="122" height="122" viewBox="0 0 122 122" fill="none" xmlns="http://www.w3.org/2000/svg">
<path d="M120.859 50.375C115.984 21.7344 91 0 60.9375 0C30.875 0 5.89062 21.7344 1.01562 50.375L60.9375 20.3125L120.859 50.375Z" fill="#699635"/>
<path d="M1.01562 71.5C5.89062 100.141 30.875 121.875 60.9375 121.875C91 121.875 115.984 100.141 120.859 71.5L60.9375 101.562L1.01562 71.5Z" fill="#699635"/>
<path d="M60.9375 20.3125L1.01562 50.375C0.40625 53.8281 0 57.2812 0 60.9375C0 64.5938 0.40625 68.0469 1.01562 71.5L60.9375 101.562L120.859 71.5C121.469 68.0469 121.875 64.5938 121.875 60.9375C121.875 57.2812 121.469 53.8281 120.859 50.375L60.9375 20.3125Z" fill="#FFE62E"/>
<path d="M48.75 53.625C42.25 53.625 36.1563 55.0469 30.6719 57.4844C30.4688 58.7031 30.4688 59.7188 30.4688 60.9375C30.4688 77.7969 44.0781 91.4062 60.9375 91.4062C72.3125 91.4062 82.2656 85.1094 87.5469 75.9688C80.0312 62.7656 65.4062 53.625 48.75 53.625Z" fill="#428BC1"/>
<path d="M91 65.8125C91.2031 64.1875 91.4062 62.5625 91.4062 60.9375C91.4062 44.0781 77.7969 30.4688 60.9375 30.4688C48.9531 30.4688 38.5938 37.375 33.5156 47.5312C38.3906 46.1094 43.4688 45.2969 48.75 45.2969C66.0156 45.2969 81.25 53.4219 91 65.8125Z" fill="#428BC1"/>
<path d="M48.75 45.2969C43.4687 45.2969 38.3906 46.1094 33.5156 47.5313C32.0937 50.5781 31.0781 53.8281 30.6719 57.4844C36.1562 55.0469 42.25 53.625 48.75 53.625C65.4062 53.625 80.0312 62.5625 87.5469 75.7656C89.375 72.7188 90.3906 69.2656 91 65.8125C81.25 53.4219 66.0156 45.2969 48.75 45.2969Z" fill="white"/>
<path d="M40.625 62.9688C41.7468 62.9688 42.6562 62.0593 42.6562 60.9375C42.6562 59.8157 41.7468 58.9062 40.625 58.9062C39.5032 58.9062 38.5938 59.8157 38.5938 60.9375C38.5938 62.0593 39.5032 62.9688 40.625 62.9688Z" fill="white"/>
<path d="M48.75 75.1562C49.8718 75.1562 50.7812 74.2468 50.7812 73.125C50.7812 72.0032 49.8718 71.0938 48.75 71.0938C47.6282 71.0938 46.7188 72.0032 46.7188 73.125C46.7188 74.2468 47.6282 75.1562 48.75 75.1562Z" fill="white"/>
<path d="M60.9375 75.1562C62.0593 75.1562 62.9688 74.2468 62.9688 73.125C62.9688 72.0032 62.0593 71.0938 60.9375 71.0938C59.8157 71.0938 58.9062 72.0032 58.9062 73.125C58.9062 74.2468 59.8157 75.1562 60.9375 75.1562Z" fill="white"/>
<path d="M60.9375 83.2812C62.0593 83.2812 62.9688 82.3718 62.9688 81.25C62.9688 80.1282 62.0593 79.2188 60.9375 79.2188C59.8157 79.2188 58.9062 80.1282 58.9062 81.25C58.9062 82.3718 59.8157 83.2812 60.9375 83.2812Z" fill="white"/>
<path d="M77.1875 75.1562C78.3093 75.1562 79.2188 74.2468 79.2188 73.125C79.2188 72.0032 78.3093 71.0938 77.1875 71.0938C76.0657 71.0938 75.1562 72.0032 75.1562 73.125C75.1562 74.2468 76.0657 75.1562 77.1875 75.1562Z" fill="white"/>
<path d="M77.1875 83.2812C78.3093 83.2812 79.2188 82.3718 79.2188 81.25C79.2188 80.1282 78.3093 79.2188 77.1875 79.2188C76.0657 79.2188 75.1562 80.1282 75.1562 81.25C75.1562 82.3718 76.0657 83.2812 77.1875 83.2812Z" fill="white"/>
<path d="M69.0625 79.2188C70.1843 79.2188 71.0938 78.3093 71.0938 77.1875C71.0938 76.0657 70.1843 75.1562 69.0625 75.1562C67.9407 75.1562 67.0312 76.0657 67.0312 77.1875C67.0312 78.3093 67.9407 79.2188 69.0625 79.2188Z" fill="white"/>
<path d="M40.625 71.0938C41.7468 71.0938 42.6562 70.1843 42.6562 69.0625C42.6562 67.9407 41.7468 67.0312 40.625 67.0312C39.5032 67.0312 38.5938 67.9407 38.5938 69.0625C38.5938 70.1843 39.5032 71.0938 40.625 71.0938Z" fill="white"/>
</svg>
