<svg width="130" height="120" viewBox="0 0 130 120" fill="none" xmlns="http://www.w3.org/2000/svg">
<path d="M130 0H0V13.3H130V0Z" fill="#DC4437"/>
<path d="M130 26.7H0V40H130V26.7Z" fill="#DC4437"/>
<path d="M130 80H0V93.3H130V80Z" fill="#DC4437"/>
<path d="M130 106.7H0V120H130V106.7Z" fill="#DC4437"/>
<path d="M130 53.3H0V66.6H130V53.3Z" fill="#DC4437"/>
<path d="M130 13.3H0V26.6H130V13.3Z" fill="white"/>
<path d="M130 40H0V53.3H130V40Z" fill="white"/>
<path d="M130 93.3H0V106.6H130V93.3Z" fill="white"/>
<path d="M130 66.7H0V80H130V66.7Z" fill="white"/>
<path d="M70 0H0V66.7H70V0Z" fill="#2A66B7"/>
<path d="M13.5 4L15.8 8.9L21 9.7L17.2 13.6L18.1 19L13.5 16.4L8.9 19L9.8 13.6L6 9.7L11.2 8.9L13.5 4Z" fill="white"/>
<path d="M34 4L36.3 8.9L41.5 9.7L37.8 13.6L38.6 19L34 16.4L29.4 19L30.2 13.6L26.5 9.7L31.7 8.9L34 4Z" fill="white"/>
<path d="M54.5 4L56.8 8.9L62 9.7L58.2 13.6L59.1 19L54.5 16.4L49.9 19L50.8 13.6L47 9.7L52.2 8.9L54.5 4Z" fill="white"/>
<path d="M24 24L26.3 28.9L31.5 29.7L27.8 33.6L28.6 39L24 36.4L19.4 39L20.2 33.6L16.5 29.7L21.7 28.9L24 24Z" fill="white"/>
<path d="M44.5 24L46.8 28.9L52 29.7L48.2 33.6L49.1 39L44.5 36.4L39.9 39L40.8 33.6L37 29.7L42.2 28.9L44.5 24Z" fill="white"/>
<path d="M13.5 45.2L15.8 50.0999L21 50.9L17.2 54.7L18.1 60.2L13.5 57.5999L8.9 60.2L9.8 54.7L6 50.9L11.2 50.0999L13.5 45.2Z" fill="white"/>
<path d="M34 45.2L36.3 50.0999L41.5 50.9L37.8 54.7L38.6 60.2L34 57.5999L29.4 60.2L30.2 54.7L26.5 50.9L31.7 50.0999L34 45.2Z" fill="white"/>
<path d="M54.5 45.2L56.8 50.0999L62 50.9L58.2 54.7L59.1 60.2L54.5 57.5999L49.9 60.2L50.8 54.7L47 50.9L52.2 50.0999L54.5 45.2Z" fill="white"/>
</svg>
