<svg width="500" height="500" viewBox="0 0 500 500" fill="none" xmlns="http://www.w3.org/2000/svg">
<g clip-path="url(#clip0_376_10)">
<path d="M389.903 382.508C380.256 382.53 370.7 380.641 361.787 376.95C352.873 373.26 344.779 367.841 337.971 361.007L262.965 286.001C260.31 283.479 256.787 282.073 253.125 282.073C249.463 282.073 245.94 283.479 243.285 286.001L167.994 361.293C161.188 368.13 153.094 373.551 144.18 377.242C135.266 380.932 125.709 382.819 116.062 382.794H101.275L196.282 477.801C225.927 507.446 274.037 507.446 303.682 477.801L398.939 382.508H389.903ZM116.062 117.204C135.706 117.204 154.136 124.847 167.994 138.705L243.285 213.996C244.579 215.292 246.116 216.32 247.807 217.022C249.499 217.723 251.312 218.084 253.143 218.084C254.974 218.084 256.787 217.723 258.479 217.022C260.171 216.32 261.707 215.292 263.001 213.996L338.006 138.991C344.808 132.158 352.896 126.739 361.804 123.049C370.711 119.358 380.261 117.469 389.903 117.489H398.939L303.682 22.2326C289.437 7.99678 270.121 0 249.982 0C229.843 0 210.527 7.99678 196.282 22.2326L101.275 117.239L116.062 117.204Z" fill="#4DB6AC"/>
<path d="M477.766 196.281L420.191 138.705C418.898 139.236 417.516 139.515 416.119 139.527H389.939C376.402 139.527 363.151 145.027 353.615 154.599L278.609 229.604C275.274 232.958 271.308 235.618 266.941 237.434C262.574 239.25 257.891 240.185 253.161 240.185C248.431 240.185 243.748 239.25 239.381 237.434C235.014 235.618 231.048 232.958 227.713 229.604L152.422 154.278C142.762 144.658 129.695 139.241 116.062 139.205H83.9167C82.5841 139.195 81.2647 138.94 80.0236 138.455L22.2337 196.281C-7.41124 225.926 -7.41124 274.036 22.2337 303.717L80.0236 361.507C81.251 361.013 82.5581 360.746 83.881 360.721H116.062C129.634 360.721 142.849 355.256 152.422 345.684L227.677 270.357C234.544 263.819 243.662 260.173 253.143 260.173C262.624 260.173 271.742 263.819 278.609 270.357L353.615 345.363C363.151 354.935 376.402 360.4 389.939 360.4H416.119C417.548 360.4 418.941 360.757 420.191 361.257L477.766 303.681C507.411 274.036 507.411 225.926 477.766 196.281Z" fill="#4DB6AC"/>
</g>
<defs>
<clipPath id="clip0_376_10">
<rect width="500" height="500" fill="white"/>
</clipPath>
</defs>
</svg>
