<svg width="500" height="500" viewBox="0 0 500 500" fill="none" xmlns="http://www.w3.org/2000/svg">
<path d="M102.578 198.791V316.561H179.791C196.137 316.606 211.856 310.274 223.608 298.913C229.156 293.567 233.571 287.159 236.591 280.071C241.135 269.403 242.327 257.604 240.008 246.242C237.689 234.88 231.969 224.492 223.608 216.457C211.858 205.09 196.139 198.752 179.791 198.791H102.578ZM24 483.933V198.791H102.446V125.838H179.791C215.209 125.826 249.236 139.624 274.642 164.301C287.25 176.385 297.287 190.892 304.152 206.95C311.004 222.986 314.536 240.244 314.536 257.683C314.536 275.122 311.004 292.38 304.152 308.416C297.288 324.474 287.25 338.981 274.642 351.065C249.234 375.739 215.207 389.533 179.791 389.517H102.581V483.946L24 483.933Z" stroke="#21C25E" stroke-width="27" stroke-linejoin="round"/>
<path d="M475.892 17H334V158.892H475.892V17Z" stroke="#21C25E" stroke-width="27" stroke-linecap="round" stroke-linejoin="round"/>
</svg>
