<svg width="200" height="204" viewBox="0 0 200 204" fill="none" xmlns="http://www.w3.org/2000/svg">
<circle cx="100" cy="109" r="95" fill="white"/>
<path d="M100.251 0.000729637C76.4672 -0.0913191 53.4324 8.5288 35.2906 24.3102C17.1487 40.0916 5.09086 61.9982 1.28632 86.0888C-2.51821 110.179 2.18035 134.872 14.5367 155.725C26.893 176.578 46.0959 192.221 68.6905 199.841C73.6842 200.661 75.2822 197.484 75.2822 194.717V177.398C47.6172 183.547 41.7246 163.972 41.7246 163.972C39.8595 157.608 35.8161 152.148 30.339 148.6C21.2505 142.246 31.0382 142.451 31.0382 142.451C34.1732 142.867 37.176 144.005 39.8221 145.78C42.4682 147.555 44.6891 149.92 46.3188 152.699C49.0931 157.761 53.7027 161.494 59.1452 163.087C64.5877 164.68 70.423 164.004 75.3821 161.205C75.8371 156.01 78.0655 151.147 81.6741 147.473C60.3012 145.218 36.5312 136.405 36.5312 97.3589C36.2423 87.1257 39.821 77.1741 46.5186 69.5862C43.4778 60.7669 43.8351 51.0889 47.5173 42.5309C47.5173 42.5309 55.9067 39.7639 74.9826 52.7791C91.3379 48.2676 108.564 48.2676 124.919 52.7791C143.995 39.5589 152.385 42.5309 152.385 42.5309C156.067 51.0889 156.424 60.7669 153.383 69.5862C160.081 77.1741 163.66 87.1257 163.371 97.3589C163.371 136.507 140 145.116 117.729 147.678C120.127 150.152 121.983 153.123 123.171 156.393C124.36 159.663 124.854 163.155 124.62 166.637V194.717C124.62 197.484 126.218 200.764 131.311 199.841C153.865 192.235 173.04 176.633 185.399 155.834C197.758 135.035 202.492 110.399 198.753 86.3424C195.014 62.286 183.046 40.3829 164.995 24.5605C146.944 8.73811 123.991 0.03112 100.251 0.000729637Z" fill="black"/>
</svg>
