<svg width="200" height="200" viewBox="0 0 200 200" fill="none" xmlns="http://www.w3.org/2000/svg">
<circle cx="100" cy="100" r="100" fill="white"/>
<path d="M140.34 53.123L100.544 84.1805L59.8386 53.123V53.1314L59.8878 53.1734V96.6621L100.086 128.391L140.34 97.8872V53.123Z" fill="#EA4335"/>
<path d="M150.787 45.5683L140.336 53.1227V97.887L173.221 72.6386V57.4287C173.221 57.4287 169.23 35.7055 150.787 45.5683Z" fill="#FBBC05"/>
<path d="M140.336 97.887V155.947H165.541C165.541 155.947 172.714 155.209 173.229 147.033V72.6387L140.336 97.887Z" fill="#34A853"/>
<path d="M59.8897 155.998V96.662L59.8386 96.6201L59.8897 155.998Z" fill="#C5221F"/>
<path d="M59.8368 53.1301L49.4431 45.6176C31.0001 35.7548 27 57.4698 27 57.4698V72.6791L59.8368 96.6187V53.1301Z" fill="#C5221F"/>
<path d="M59.8386 53.1326V96.6214L59.8897 96.6633V53.1746L59.8386 53.1326Z" fill="#C5221F"/>
<path d="M27 72.6907V147.085C27.5082 155.27 34.6887 156 34.6887 156H59.8942L59.8368 96.6216L27 72.6907Z" fill="#4285F4"/>
</svg>
