<svg width="200" height="200" viewBox="0 0 200 200" fill="none" xmlns="http://www.w3.org/2000/svg">
<path d="M200 100.122C200 73.5684 189.469 48.1018 170.724 29.3252C151.979 10.5486 126.556 4.27436e-05 100.046 4.27436e-05C74.8771 -0.0232398 50.6257 9.46578 32.1362 26.5717C13.6467 43.6775 2.28039 67.1409 0.307674 92.275C-1.66504 117.409 5.90107 142.363 21.4947 162.153C37.0883 181.943 59.5614 195.112 84.4249 199.029V129.058H59.0652V100.122H84.4392V78.0669C84.4392 52.9791 99.3608 39.105 122.193 39.105C133.131 39.105 144.569 41.0645 144.569 41.0645V65.709H131.96C119.537 65.709 115.682 73.4327 115.682 81.3424V100.122H143.398L138.971 129.058H115.668V199.029C139.178 195.3 160.589 183.29 176.048 165.159C191.507 147.028 200.001 123.966 200 100.122Z" fill="#1877F2"/>
<path d="M139.066 128.804L143.49 99.8678H115.791V81.0874C115.791 73.1776 119.644 65.4537 132.06 65.4537H144.66V40.7945C144.66 40.7945 133.23 38.835 122.299 38.835C99.4659 38.835 84.5676 52.7093 84.5676 77.7976V99.8678H59.2234V128.804H84.5819V198.776C94.9261 200.408 105.461 200.408 115.806 198.776V128.804H139.066Z" fill="white"/>
</svg>
