<svg width="196" height="200" viewBox="0 0 196 200" fill="none" xmlns="http://www.w3.org/2000/svg">
<path fill-rule="evenodd" clip-rule="evenodd" d="M40.9673 99.9999C40.9673 93.5045 42.0461 87.2772 43.9716 81.4363L10.2691 55.7C3.70071 69.0363 0 84.0636 0 99.9999C0 115.923 3.69616 130.941 10.2555 144.268L43.9397 118.482C42.0324 112.668 40.9673 106.464 40.9673 99.9999Z" fill="#FBBC05"/>
<path fill-rule="evenodd" clip-rule="evenodd" d="M100.142 40.9091C114.253 40.9091 126.999 45.9091 137.013 54.0909L166.145 25C148.393 9.54546 125.633 0 100.142 0C60.568 0 26.5561 22.6318 10.2693 55.7L43.9717 81.4364C51.7373 57.8636 73.8733 40.9091 100.142 40.9091Z" fill="#EB4335"/>
<path fill-rule="evenodd" clip-rule="evenodd" d="M100.142 159.091C73.8733 159.091 51.7373 142.136 43.9717 118.564L10.2693 144.295C26.5561 177.368 60.568 200 100.142 200C124.568 200 147.888 191.327 165.39 175.077L133.399 150.345C124.372 156.032 113.006 159.091 100.142 159.091Z" fill="#34A853"/>
<path fill-rule="evenodd" clip-rule="evenodd" d="M195.732 99.9997C195.732 94.0906 194.822 87.727 193.456 81.8179H100.142V120.454H153.854C151.169 133.627 143.858 143.754 133.398 150.345L165.389 175.077C183.774 158.013 195.732 132.595 195.732 99.9997Z" fill="#4285F4"/>
</svg>
