<svg width="862" height="954" viewBox="0 0 862 954" fill="none" xmlns="http://www.w3.org/2000/svg">
<path d="M555.751 619.899C549.993 574.318 575.715 520.947 584.534 505.673C637.647 417.205 608.953 302.888 520.484 249.774C432.016 196.66 317.096 225.516 263.983 313.985C210.869 402.453 239.725 517.373 328.193 570.486L333.539 573.573C348.651 581.788 397.613 615.148 415.578 658.103C420.333 671.031 425.088 683.959 427.875 696.768L563.993 660.296C561.045 646.884 558.097 633.472 555.751 619.899Z" fill="#F0D32F"/>
<path d="M567.823 672.18L431.103 708.814C428.091 709.621 424.757 709.223 421.703 707.46C418.648 705.696 416.636 703.007 415.829 699.996C412.44 687.348 408.449 674.861 403.855 662.536C387.945 624.839 343.404 593.523 327.367 584.264L322.021 581.178C276.039 554.121 243.693 510.5 231.019 458.38C218.345 406.26 226.073 353.192 253.13 307.21C280.187 261.228 323.808 228.882 375.928 216.208C427.284 203.093 481.116 211.262 527.098 238.319C573.08 265.376 605.425 308.997 618.1 361.117C631.215 412.473 623.046 466.305 595.989 512.287C587.009 526.958 563.653 577.113 568.883 618.317C571.068 631.287 573.252 644.258 577.244 656.745C578.051 659.757 577.653 663.091 575.889 666.146C573.523 669.362 570.835 671.373 567.823 672.18ZM436.693 681.495L549.322 651.316C546.74 641.679 545.362 631.72 543.383 621.922C536.204 563.811 573.563 500.867 574.004 500.103C598.135 460.069 604.907 413.067 593.406 367.734C581.904 322.4 553.582 284.156 513.709 260.627C473.676 236.495 426.674 229.723 381.34 241.225C336.448 251.962 298.204 280.285 274.674 320.157C250.543 360.191 243.771 407.193 255.272 452.527C266.774 497.86 295.096 536.104 334.969 559.633L339.551 562.279C340.314 562.72 404.302 599.154 426.979 652.467C430.927 662.383 434.111 671.858 436.693 681.495Z" fill="black"/>
<path d="M452.126 789.682C461.132 830.52 500.607 857.384 542.692 850.626C582.078 836.199 603.434 793.036 590.653 752.564C582.584 722.45 572.181 688.442 564.434 659.532L427.714 696.166C436.063 724.914 444.057 759.568 452.126 789.682Z" fill="#3BB7BC"/>
<path d="M545.92 862.672L544.715 862.995C496.607 871.367 450.861 840.373 440.08 792.91C436.368 779.058 432.495 764.603 429.386 750.588C424.867 733.724 420.628 715.494 416.432 699.835C415.625 696.823 416.022 693.489 417.786 690.434C419.55 687.379 422.238 685.368 425.25 684.561L561.97 647.927C564.982 647.12 568.316 647.518 571.37 649.281C574.425 651.045 576.437 653.734 577.244 656.745C581.278 671.802 585.958 689.269 591.079 705.972C594.953 720.427 599.589 735.323 603.301 749.175C617.696 795.67 593.576 845.384 547.124 862.349L545.92 862.672ZM443.149 705.586C446.538 718.235 450.088 731.485 452.875 744.294C456.748 758.749 460.019 773.366 463.57 786.616L463.731 787.219C471.564 821.27 504.004 843.563 538.862 838.742C571.622 826.09 589.172 790.402 578.166 756.556C574.293 742.101 570.42 727.646 565.945 713.352C562.555 700.704 558.403 687.615 555.175 675.569L443.149 705.586Z" fill="black"/>
<path d="M593.119 665.402L400.386 717.044C393.761 718.82 386.888 714.851 385.112 708.226C383.337 701.601 387.305 694.728 393.931 692.953L586.664 641.31C593.289 639.535 600.162 643.503 601.938 650.128C603.713 656.753 599.745 663.626 593.119 665.402ZM582.261 721.245L443.734 758.363C437.109 760.138 430.236 756.17 428.46 749.545C426.685 742.92 430.653 736.047 437.279 734.272L575.806 697.153C582.431 695.378 589.304 699.346 591.079 705.971C592.855 712.597 588.886 719.47 582.261 721.245ZM594.042 765.212L455.515 802.331C448.89 804.106 442.017 800.138 440.242 793.512C438.466 786.887 442.434 780.014 449.06 778.239L587.587 741.121C594.212 739.345 601.085 743.314 602.86 749.939C604.636 756.564 600.667 763.437 594.042 765.212Z" fill="black"/>
<path d="M476.275 696.71C469.65 698.485 462.777 694.517 461.001 687.892C460.679 686.687 429.984 579.361 416.912 530.576L413.9 531.382C398.843 535.417 386.872 534.106 377.547 528.213C369.146 523.363 363.553 514.533 361.089 502.928C359.109 493.13 358.117 470.156 390.641 461.442C400.278 458.859 408.753 459.171 415.024 463.3C426.479 469.914 430.03 483.164 433.623 498.985L433.785 499.588L457.876 493.132L455.617 484.7C449.162 460.608 459.464 443.646 484.158 437.029C494.397 434.286 503.959 436.243 511.918 441.856C518.35 446.588 523.621 454.213 525.881 462.645C530.722 480.714 523.679 502.613 501.996 508.423L488.746 511.973L530.867 669.171C532.642 675.797 528.674 682.67 522.049 684.445C515.424 686.22 508.551 682.252 506.776 675.627L464.654 518.428L440.563 524.884C454.076 572.906 484.168 680.393 484.491 681.598C486.868 688.062 483.502 694.773 476.275 696.71ZM482.893 487.72L496.143 484.17C503.973 482.072 503.359 472.553 502.391 468.939C501.584 465.928 500.175 463.078 497.884 461.755C496.959 460.712 494.829 459.991 491.215 460.96C478.567 464.349 477.567 467.844 480.311 478.083L482.893 487.72ZM397.258 486.136C384.007 489.686 385.137 493.902 385.826 498.882C386.956 503.098 388.526 506.55 390.817 507.873C393.872 509.637 400.379 509.83 407.607 507.893L410.618 507.086L410.457 506.484C408.359 498.654 405.292 487.21 403.001 485.888C402.238 485.447 400.872 485.167 397.258 486.136ZM293.271 454.61C286.646 456.385 279.773 452.417 277.998 445.791C257.986 371.107 302.959 293.212 378.245 273.039C384.871 271.264 391.744 275.232 393.519 281.857C395.294 288.483 391.326 295.356 384.701 297.131C322.665 313.753 285.628 377.902 302.09 439.336C303.865 445.961 299.897 452.834 293.271 454.61Z" fill="black"/>
<path d="M172.549 300.397C169.538 301.204 166.204 300.806 163.149 299.043L126.493 277.879C120.383 274.352 118.447 267.124 121.974 261.015C125.501 254.906 132.729 252.969 138.838 256.496L175.495 277.66C181.604 281.187 183.541 288.415 180.013 294.524C178.25 297.579 175.561 299.59 172.549 300.397Z" fill="#F0D32F"/>
<path d="M94.423 493.344C96.0287 490.672 98.7034 488.642 102.126 487.789L143.196 477.549C150.041 475.842 156.455 479.696 158.161 486.541C159.868 493.386 156.014 499.799 149.169 501.506L108.099 511.746C101.254 513.453 94.8405 509.599 93.1338 502.754C92.2805 499.331 92.8173 496.017 94.423 493.344Z" fill="#F0D32F"/>
<path d="M341.085 155.548C338.358 154.036 336.236 151.434 335.263 148.044L323.596 107.356C321.652 100.575 325.279 94.0304 332.061 92.0859C338.842 90.1414 345.386 93.769 347.331 100.55L358.998 141.238C360.942 148.019 357.315 154.563 350.533 156.508C347.143 157.48 343.811 157.059 341.085 155.548Z" fill="#F0D32F"/>
<path d="M734.929 338.444C733.37 341.144 730.731 343.22 727.324 344.133L686.439 355.088C679.625 356.914 673.145 353.173 671.319 346.359C669.493 339.544 673.234 333.064 680.048 331.239L720.933 320.284C727.748 318.458 734.228 322.199 736.053 329.013C736.966 332.42 736.487 335.744 734.929 338.444Z" fill="#F0D32F"/>
<path d="M585.12 189.85C582.108 190.657 578.774 190.259 575.719 188.495C569.61 184.968 567.673 177.741 571.201 171.631L592.364 134.975C595.891 128.865 603.119 126.929 609.228 130.456C615.338 133.983 617.274 141.211 613.747 147.32L592.583 183.977C590.82 187.031 588.131 189.043 585.12 189.85Z" fill="#F0D32F"/>
</svg>
