<svg width="361" height="361" viewBox="0 0 361 361" fill="none" xmlns="http://www.w3.org/2000/svg">
<path d="M180.322 0C80.7125 0 0 80.7625 0 180.298C0 279.883 80.7125 360.597 180.322 360.597C279.883 360.597 360.595 279.883 360.595 180.298C360.595 80.7625 279.883 0 180.322 0Z" fill="url(#paint0_linear_106_72)"/>
<circle cx="180" cy="181" r="139" stroke="black" stroke-width="12"/>
<path d="M255.692 229.733L234.371 211.273C218.279 229.733 213.16 231.789 189.091 231.789C171.142 231.789 157.532 226.689 147.488 216.183C137.384 205.617 132.472 194.123 132.472 181.067C132.472 166.035 137.506 153.882 147.855 143.901C158.265 133.872 170.972 128.991 186.709 128.991C204.889 128.991 220.48 135.592 234.371 149.209L255.692 127.93C244.171 116.875 232.661 109.213 221.469 105.125C210.4 101.062 198.01 99 184.68 99C161.906 99 142.222 106.967 126.192 122.695C110.138 138.423 102 157.762 102 180.165C102 201.444 109.917 220.588 125.556 237.06C141.257 253.617 162.48 262 188.639 262C200.001 262 209.984 260.719 218.279 258.181C226.722 255.606 235.022 251.736 242.377 245.757C249.708 239.816 251.269 237.275 255.692 229.733C260.078 222.254 251.689 236.287 255.692 229.733Z" fill="black"/>
<rect x="153" y="79" width="18" height="202" fill="black"/>
<rect x="188" y="80" width="18" height="202" fill="black"/>
<defs>
<linearGradient id="paint0_linear_106_72" x1="180.298" y1="0" x2="180.298" y2="360.597" gradientUnits="userSpaceOnUse">
<stop stop-color="#F7CA3A"/>
<stop offset="1" stop-color="#917722"/>
</linearGradient>
</defs>
</svg>
