<svg width="800" height="799" viewBox="0 0 800 799" fill="none" xmlns="http://www.w3.org/2000/svg">
<path d="M190.102 606.078C185.023 601.781 184.633 595.661 188.93 587.719L197.914 571.312C202.211 563.37 209.177 562.784 218.812 569.555C226.885 575.284 236 579.971 246.156 583.617C256.312 587.133 267.641 588.891 280.141 588.891C297.328 588.891 309.633 584.268 317.055 575.023C324.477 565.648 328.188 555.167 328.188 543.578C328.188 531.729 323.76 521.117 314.906 511.742C306.182 502.237 293.812 497.484 277.797 497.484H262.758C254.294 497.484 250.062 494.034 250.062 487.133V465.648C250.062 458.487 254.294 454.906 262.758 454.906H274.477C286.456 454.906 297.003 451.195 306.117 443.773C315.362 436.352 319.984 427.042 319.984 415.844C319.984 407.12 316.924 399.893 310.805 394.164C304.815 388.305 294.984 385.375 281.312 385.375C268.422 385.375 257.289 387.263 247.914 391.039C238.539 394.815 231.117 399.372 225.648 404.711C217.836 412.393 211.13 412.068 205.531 403.734L194.203 387.133C189.906 380.883 191.208 374.503 198.109 367.992C207.484 359.008 219.594 352.367 234.438 348.07C249.281 343.773 263.799 341.625 277.992 341.625C311.456 341.625 336.326 348.331 352.602 361.742C368.878 375.023 377.016 391.299 377.016 410.57C377.016 424.893 371.417 437.979 360.219 449.828C349.021 461.547 337.172 469.62 324.672 474.047V474.828C339.516 478.474 353.578 486.482 366.859 498.852C380.141 511.091 386.781 526.326 386.781 544.555C386.781 573.07 377.797 594.88 359.828 609.984C341.859 625.089 314.451 632.641 277.602 632.641C262.107 632.641 246.026 630.297 229.359 625.609C212.823 620.792 199.737 614.281 190.102 606.078ZM415.688 487.133C415.688 434.398 423.891 396.964 440.297 374.828C456.703 352.693 481.833 341.625 515.688 341.625C549.542 341.625 574.672 352.693 591.078 374.828C607.484 396.964 615.688 434.398 615.688 487.133C615.688 539.867 607.484 577.302 591.078 599.438C574.672 621.573 549.542 632.641 515.688 632.641C481.833 632.641 456.703 621.573 440.297 599.438C423.891 577.302 415.688 539.867 415.688 487.133ZM473.5 487.133C473.5 511.221 475.453 534.398 479.359 556.664C483.396 578.93 495.505 590.062 515.688 590.062C535.87 590.062 547.914 578.93 551.82 556.664C555.857 534.398 557.875 511.221 557.875 487.133C557.875 463.044 555.857 439.867 551.82 417.602C547.914 395.336 535.87 384.203 515.688 384.203C495.505 384.203 483.396 395.336 479.359 417.602C475.453 439.867 473.5 463.044 473.5 487.133Z" fill="#B9B9B9"/>
<path d="M750.321 82.5585H671.96V0H561.7V82.5585H238.3V0H128.049V82.5585H49.6878C22.2463 82.5585 0 104.805 0 132.246V748.404C0 775.846 22.2463 798.092 49.6878 798.092H750.321C777.762 798.092 800.009 775.854 800.009 748.404V132.246C800.009 104.805 777.762 82.5585 750.321 82.5585ZM722.984 721.899H77.0165V297.884H722.984V721.899Z" fill="#B9B9B9"/>
</svg>
