<svg width="366" height="282" viewBox="0 0 366 282" fill="none" xmlns="http://www.w3.org/2000/svg">
<path d="M362.791 20.3149L276.782 0.238281C273.932 -0.424917 271.556 2.49967 272.793 5.14887L288.448 38.589L135.474 109.833C131.962 111.502 130.443 115.674 132.075 119.169L158.838 176.534L2.77587 249.18C1.93394 249.577 1.28317 250.291 0.965018 251.165C0.646867 252.039 0.687051 253.003 1.07683 253.849L13.0079 279.243C13.406 280.085 14.1203 280.736 14.9956 281.054C15.8709 281.373 16.8364 281.333 17.6822 280.945L199.207 196.514C202.745 194.901 204.279 190.688 202.605 187.178L175.843 129.812L303.325 70.4358L318.938 103.861C319.219 104.458 319.661 104.964 320.215 105.322C320.77 105.681 321.413 105.876 322.073 105.887C322.733 105.898 323.382 105.724 323.947 105.385C324.513 105.045 324.971 104.554 325.27 103.967L365.149 25.2902C366.206 23.2888 365.047 20.8086 362.791 20.3149Z" fill="#6DA67A"/>
</svg>
