<svg width="800" height="799" viewBox="0 0 800 799" fill="none" xmlns="http://www.w3.org/2000/svg">
<path d="M318.812 396.703C310.349 396.703 306.117 392.471 306.117 384.008V360.961C306.117 352.497 310.349 348.266 318.812 348.266H478.188C486.651 348.266 490.883 352.497 490.883 360.961V383.031C490.883 389.672 487.628 396.638 481.117 403.93C454.424 434.008 435.74 464.021 425.062 493.969C414.385 523.917 409.047 560.049 409.047 602.367V614.477C409.047 622.94 404.815 627.172 396.352 627.172H367.055C358.591 627.172 354.359 622.94 354.359 614.477V609.203C354.359 562.198 362.107 522.68 377.602 490.648C393.227 458.617 413.93 427.302 439.711 396.703V395.922C434.503 396.443 429.294 396.703 424.086 396.703H318.812Z" fill="#B9B9B9"/>
<path d="M750.321 82.5585H671.96V0H561.7V82.5585H238.3V0H128.049V82.5585H49.6878C22.2463 82.5585 0 104.805 0 132.246V748.404C0 775.846 22.2463 798.092 49.6878 798.092H750.321C777.762 798.092 800.009 775.854 800.009 748.404V132.246C800.009 104.805 777.762 82.5585 750.321 82.5585ZM722.984 721.899H77.0165V297.884H722.984V721.899Z" fill="#B9B9B9"/>
</svg>
